# xmcd
#
# Track frame offsets:
#	150
#	28422
#	56411
#	75724
#	101433
#	144601
#	162738
#	194884
#	221744
#	246576
#
# Disc length: 3714 seconds
#
# Revision: 0
# Processed by: cddbd v1.5.2PL0 Copyright (c) Steve Scherf et al.
# Submitted via: audiograbber 1.83.01
#
DISCID=9f0e800a
DTITLE=The Black Crowes - Croweology [CD2]
DYEAR=2010
DGENRE=Rock
TTITLE0=She Talks To Angels
TTITLE1=Morning Song
TTITLE2=Downtown Money Waster
TTITLE3=Good Friday
TTITLE4=Thorn In My Pride
TTITLE5=Welcome To The Goodtimes
TTITLE6=Girl From A Pawnshop
TTITLE7=Sister Luck
TTITLE8=She
TTITLE9=Bad Luck Blue Eyes Goodbye
EXTD=
EXTT0=
EXTT1=
EXTT2=
EXTT3=
EXTT4=
EXTT5=
EXTT6=
EXTT7=
EXTT8=
EXTT9=
PLAYORDER=
